<?xml version="1.0" encoding="utf-8"?>
<!-- Generator: Adobe Illustrator 16.0.4, SVG Export Plug-In . SVG Version: 6.00 Build 0)  -->
<!DOCTYPE svg PUBLIC "-//W3C//DTD SVG 1.0//EN" "http://www.w3.org/TR/2001/REC-SVG-20010904/DTD/svg10.dtd">
<svg version="1.0" id="Ebene_1" xmlns="http://www.w3.org/2000/svg" xmlns:xlink="http://www.w3.org/1999/xlink" x="0px" y="0px"
	 viewBox="0 0 171.956 26.37" enable-background="new 0 0 171.956 26.37" xml:space="preserve">
<g>
	<path fill="#009BB6" d="M16.104,2.441c0,0.591-0.2,1.252-0.602,1.983c-0.165,0.307-0.884,1.31-2.159,3.008
		c0.59,0.401,1.192,0.791,1.806,1.169c0.66,0.543,0.955,1.156,0.885,1.84l-0.035,0.39c-0.023,0-0.566-0.165-1.628-0.495
		c-0.686-0.213-1.217-0.319-1.593-0.319c-1.299,0-3.169,1.363-5.611,4.089c-2.441,2.726-3.663,4.761-3.663,6.105
		c0,1.157,1.038,1.995,3.115,2.512c1.321,0.332,2.808,0.496,4.46,0.496c0.637,0,1.285-0.047,1.947-0.141
		c-0.024,0.117,0.082,0.33,0.317,0.637c-1.486,0.566-2.961,0.85-4.424,0.85c-5.31,0-7.965-1.297-7.965-3.893
		c0-1.535,1.333-3.788,4-6.762l3.044-3.397l-1.238-0.071c-0.52-0.023-1.217,0.119-2.089,0.425c-1.723,0.614-2.738,0.921-3.044,0.921
		c-0.401,0-0.773-0.124-1.115-0.372C0.171,11.168,0,10.854,0,10.478c0-0.921,1.049-1.381,3.15-1.381c0.212,0,0.519,0.012,0.92,0.035
		c0.4,0.024,0.708,0.035,0.92,0.035c1.793,0,3.274-0.306,4.442-0.92c1.168-0.613,2.2-1.675,3.098-3.186
		c0.306-0.519,1.026-1.982,2.159-4.39c0.306,0,0.619,0.213,0.938,0.638C15.946,1.733,16.104,2.112,16.104,2.441z"/>
</g>
<g>
	<path fill="#009BB6" d="M36.924,12.778c0,1.085-0.702,2.973-2.105,5.663c-1.404,2.69-2.106,4.448-2.106,5.274
		c0,0.684,0.188,1.346,0.566,1.982c-0.85,0.447-1.51,0.672-1.981,0.672c-0.874,0-1.311-0.447-1.311-1.344
		c0-0.945,0.69-2.826,2.071-5.646c1.38-2.82,2.07-4.773,2.07-5.858c0-0.142-0.023-0.366-0.07-0.673
		c-0.048-0.306-0.071-0.531-0.071-0.673c-3.469,0.402-6.82,1.724-10.053,3.965c-3.351,2.336-5.676,5.062-6.974,8.176
		c-0.52-0.189-1.298-0.389-2.336-0.602c0.118-0.52,0.933-1.781,2.442-3.788c0.543-0.684,2.041-2.654,4.495-5.911
		c1.794-2.383,2.926-3.976,3.399-4.778c0.141-0.235,0.849-1.876,2.123-4.92c0.92-2.171,1.771-3.61,2.549-4.318
		c0.283,0.165,0.578,0.342,0.885,0.53c0.306,0.189,0.46,0.449,0.46,0.779c0,0.354-1.994,4.543-5.981,12.565
		c1.981-0.873,3.716-1.616,5.203-2.229c2.831-1.18,4.436-1.771,4.813-1.771c0.425,0,0.744,0.106,0.956,0.319
		C36.605,10.831,36.924,11.692,36.924,12.778z"/>
</g>
<path fill="#009BB6" d="M47.955,21.875c-1.415,0.141-2.654,0.211-3.716,0.211c-2.879,0-4.318-0.789-4.318-2.371
	c0-0.896,0.589-1.628,1.77-2.194c0.943,0.661,2.501,0.991,4.673,0.991c1.392,0,2.761-0.307,4.105-0.921
	c1.604-0.731,2.407-1.722,2.407-2.973c0-1.417-0.531-2.302-1.593-2.655c-0.496-0.165-1.499-0.425-3.009-0.778
	c-1.558,0.448-3.057,1.026-4.495,1.734c-4.154,2.006-6.23,4.413-6.23,7.221c0,2.29,1.994,3.434,5.982,3.434
	c1.935,0,3.834-0.143,5.698-0.426c2.644-0.4,4.319-0.99,5.026-1.77C53.383,21.379,51.283,21.545,47.955,21.875z M46.044,13.91
	c0.59-0.306,1.251-0.46,1.983-0.46c1.014,0,1.875,0.378,2.583,1.133c-0.92,1.346-2.076,2.018-3.469,2.018
	c-1.227,0-2.194-0.566-2.902-1.699C45.419,14.265,46.021,13.935,46.044,13.91z"/>
<g>
	<path fill="#009BB6" d="M81.624,15.609l-5.558-1.805c-1.368,0-2.571,0.933-3.61,2.796c-0.377,0.638-1.009,2.143-1.894,4.513
		c-0.885,2.372-2.307,3.557-4.266,3.557c0.118-0.967,0.731-2.301,1.841-3.999c1.204-1.841,1.924-3.197,2.159-4.071
		c0.188-0.73,0.319-1.935,0.39-3.61c0.023-0.708,0.188-1.439,0.496-2.194c0.425-1.062,0.907-1.616,1.45-1.664l0.673,0.035
		l0.354,2.407c0.164,0.614,0.719,0.921,1.664,0.921h1.203c0.212-0.023,0.377-0.036,0.495-0.036
		C79.736,12.412,81.271,13.463,81.624,15.609z"/>
</g>
<path fill="#009BB6" d="M98.692,15.167c4.842,5.868,6.466,8.548,12.098,8.548c2.691,0,5.251-0.471,7.683-1.416
	c3.208-1.25,4.813-2.985,4.813-5.204c0-1.911-0.744-3.386-2.23-4.424c-1.298-0.92-2.938-1.381-4.92-1.381
	c-2.242,0-4.989,0.699-8.283,2.478c-1.378,1.035-10.043,6.219-13.039,7.257c-2.266,0.779-4.472,1.167-6.618,1.167
	c-2.243,0-4.166-0.813-5.771-2.441c1.038-1.745,2.761-3.221,5.168-4.424c2.289-1.181,4.496-1.725,6.619-1.771
	C94.877,13.542,96.807,13.246,98.692,15.167z M109.623,15.327c2.288-1.181,4.495-1.771,6.618-1.771c1.274,0,2.384,0.236,3.327,0.708
	c1.18,0.591,1.771,1.464,1.771,2.619c0,1.724-1.499,3.104-4.496,4.142c-2.266,0.779-4.507,1.557-6.618,1.167
	c-5.2-0.958-7.908-6.475-10.622-8.862c-1.508-1.565-3.871-2.115-5.854-2.115c-2.242,0-4.646,0.902-7.926,2.554
	c-3.682,1.865-5.522,3.788-5.522,5.77c0,2.785,2.819,4.177,8.46,4.177c2.69,0,5.23-0.523,7.681-1.416
	C99.41,21.218,107.814,16.42,109.623,15.327z"/>
<g>
	<path fill="#009BB6" d="M151.355,12.672c0,1.203-0.438,2.478-1.311,3.823c-0.447,0.685-1.12,1.723-2.018,3.114
		c-1.085,1.747-1.627,2.868-1.627,3.364c0,0.166,0.058,0.566,0.177,1.203c0.046,0.258,0.07,0.508,0.07,0.742
		c0,0.52-0.331,0.908-0.991,1.17c-1.015-0.262-1.522-1.088-1.522-2.479c0-1.203,0.461-2.561,1.381-4.072
		c2.006-3.279,3.009-5.38,3.009-6.3c-1.439,0.425-3.327,1.368-5.663,2.831c-1.133,0.732-2.833,1.818-5.098,3.257
		c-2.668,1.651-4.343,2.479-5.026,2.479l-0.531-0.106c0.048-0.52,1.062-1.734,3.045-3.646c0.872-0.849,1.31-1.746,1.31-2.689
		c0-0.354-0.071-0.72-0.213-1.098c-0.023-0.047-0.189-0.401-0.495-1.062c-1.464,0.732-3.15,2.019-5.062,3.858l-4.602,4.46
		c-1.511,1.464-2.738,2.195-3.682,2.195v-0.637c0-0.637,1.215-2.312,3.646-5.027c1.344-1.486,2.146-2.501,2.405-3.044
		c0.567-1.133,1.192-1.734,1.877-1.806c0.471-0.047,1.864-0.602,4.177-1.663c1.038-0.472,1.771-0.708,2.194-0.708
		c0.991,0,1.734,0.873,2.23,2.619c0.094,0.331,0.26,1.051,0.496,2.159c0.943-0.542,2.654-1.498,5.132-2.866
		c2.336-1.274,4.105-1.912,5.31-1.912C150.896,10.831,151.355,11.445,151.355,12.672z"/>
</g>
<g>
	<path fill="#009BB6" d="M171.956,6.761c-0.213,1.109-1.097,1.889-2.654,2.336c-0.921,0.236-2.562,0.649-4.92,1.239
		c-2.03,0.519-3.505,1.251-4.425,2.194c2.972,0.731,4.825,1.238,5.558,1.522c2.595,0.968,3.893,2.088,3.893,3.362
		c0,1.841-1.545,3.562-4.638,5.167c-2.736,1.393-5.119,2.088-7.149,2.088c-1.676,0-3.21-0.648-4.602-1.947
		c-1.51-1.415-2.207-2.924-2.088-4.53l0.035-0.531c0.659,0.236,1.616,1.228,2.866,2.974c1.18,1.628,2.218,2.443,3.116,2.443
		c1.533,0,3.516-0.52,5.946-1.558c2.808-1.202,4.212-2.454,4.212-3.751c0-0.921-0.826-1.629-2.478-2.125
		c-0.07,0-1.829-0.447-5.274-1.345c-1.911-0.495-3.162-1.073-3.752-1.734c0.708-0.778,2.112-1.604,4.213-2.478
		c1.345-0.566,3.351-1.251,6.017-2.053c2.879-0.873,4.579-1.404,5.098-1.593C171.235,6.607,171.578,6.714,171.956,6.761z"/>
</g>
</svg>
